# xmcd CD database file
#
# Track frame offsets:
#	182
#	10490
#	21965
#	35092
#	49775
#	64280
#	75685
#	91175
#	104545
#	119397
#	134172
#	148197
#	161912
#	174412
#	185117
#	197557
#	210445
#	222400
#
# Disc length: 3158 seconds
#
# Revision: 3
# Processed by: cddbd v1.5.2PL0 Copyright (c) Steve Scherf et al.
# Submitted via: CDex 1.70beta2
#
DISCID=160c5412
DTITLE=Art Tatum - Jazz and Blues Collection
DYEAR=1932
DGENRE=Jazz
TTITLE0=Tiger Rag
TTITLE1=Saint Louis Blues
TTITLE2=Wee Baby Blues
TTITLE3=Stompin' at the Savoy
TTITLE4=Last Goodbye Blues
TTITLE5=Battery Bounce
TTITLE6=Lucille
TTITLE7=Rock Me Mama
TTITLE8=Lonesome Graveyard Blues
TTITLE9=Elegie
TTITLE10=Humoresque
TTITLE11=Sweet Lorraine
TTITLE12=Get Happy
TTITLE13=Emaline
TTITLE14=Begin the Beguine
TTITLE15=Liza
TTITLE16=I Would Do Anything for You
TTITLE17=Tea for Two
EXTD=YEAR: 1932
EXTT0=
EXTT1=
EXTT2=
EXTT3=
EXTT4=
EXTT5=
EXTT6=
EXTT7=
EXTT8=
EXTT9=
EXTT10=
EXTT11=
EXTT12=
EXTT13=
EXTT14=
EXTT15=
EXTT16=
EXTT17=
PLAYORDER=
